<mxfile host="65bd71144e">
    <diagram id="M-IEiFq0z-I47tO5eb5R" name="Page-1">
        <mxGraphModel dx="1146" dy="540" grid="1" gridSize="10" guides="1" tooltips="1" connect="1" arrows="1" fold="1" page="1" pageScale="1" pageWidth="850" pageHeight="1100" math="0" shadow="0">
            <root>
                <mxCell id="0"/>
                <mxCell id="1" parent="0"/>
                <mxCell id="6" value="Revisar menÃº" style="rounded=1;whiteSpace=wrap;html=1;arcSize=40;fontColor=#ffffff;fillColor=#1ba1e2;strokeColor=#006EAF;fontStyle=0" vertex="1" parent="1">
                    <mxGeometry x="40" y="180" width="120" height="40" as="geometry"/>
                </mxCell>
                <mxCell id="7" value="" style="edgeStyle=orthogonalEdgeStyle;html=1;verticalAlign=bottom;endArrow=open;endSize=8;strokeColor=#006EAF;fontStyle=0;fillColor=#1ba1e2;" edge="1" source="6" parent="1" target="8">
                    <mxGeometry relative="1" as="geometry">
                        <mxPoint x="100" y="280" as="targetPoint"/>
                    </mxGeometry>
                </mxCell>
                <mxCell id="8" value="Agregar platos al carrito" style="rounded=1;whiteSpace=wrap;html=1;arcSize=40;fontColor=#ffffff;fillColor=#1ba1e2;strokeColor=#006EAF;fontStyle=0" vertex="1" parent="1">
                    <mxGeometry x="190" y="180" width="120" height="40" as="geometry"/>
                </mxCell>
                <mxCell id="9" value="" style="edgeStyle=orthogonalEdgeStyle;html=1;verticalAlign=bottom;endArrow=open;endSize=8;strokeColor=#006EAF;fontStyle=0;fillColor=#1ba1e2;" edge="1" source="8" parent="1" target="3">
                    <mxGeometry relative="1" as="geometry">
                        <mxPoint x="250" y="280" as="targetPoint"/>
                    </mxGeometry>
                </mxCell>
                <mxCell id="17" value="Cliente" style="swimlane;startSize=20;whiteSpace=wrap;html=1;fontStyle=0;fillColor=#1ba1e2;fontColor=#ffffff;strokeColor=#006EAF;" vertex="1" parent="1">
                    <mxGeometry x="20" y="60" width="480" height="410" as="geometry"/>
                </mxCell>
                <mxCell id="13" value="Recibir pedido" style="shape=mxgraph.sysml.accEvent;flipH=1;whiteSpace=wrap;align=center;direction=east;fontStyle=0;fillColor=#1ba1e2;fontColor=#ffffff;strokeColor=#006EAF;" vertex="1" parent="17">
                    <mxGeometry x="330" y="280" width="140" height="40" as="geometry"/>
                </mxCell>
                <mxCell id="14" value="Cenar" style="rounded=1;whiteSpace=wrap;html=1;arcSize=40;fontColor=#ffffff;fillColor=#1ba1e2;strokeColor=#006EAF;fontStyle=0" vertex="1" parent="17">
                    <mxGeometry x="170" y="280" width="120" height="40" as="geometry"/>
                </mxCell>
                <mxCell id="19" value="" style="edgeStyle=orthogonalEdgeStyle;html=1;verticalAlign=bottom;endArrow=open;endSize=8;strokeColor=#006EAF;fontStyle=0;fillColor=#1ba1e2;" edge="1" parent="17" source="13" target="14">
                    <mxGeometry relative="1" as="geometry">
                        <mxPoint x="240" y="380" as="targetPoint"/>
                        <mxPoint x="240" y="350" as="sourcePoint"/>
                    </mxGeometry>
                </mxCell>
                <mxCell id="16" value="" style="ellipse;html=1;shape=endState;fillColor=#1ba1e2;strokeColor=#006EAF;fontStyle=0;fontColor=#ffffff;" vertex="1" parent="17">
                    <mxGeometry x="215" y="360" width="30" height="30" as="geometry"/>
                </mxCell>
                <mxCell id="15" value="" style="edgeStyle=orthogonalEdgeStyle;html=1;verticalAlign=bottom;endArrow=open;endSize=8;strokeColor=#006EAF;fontStyle=0;fillColor=#1ba1e2;" edge="1" source="14" parent="17" target="16">
                    <mxGeometry relative="1" as="geometry">
                        <mxPoint x="230" y="400" as="targetPoint"/>
                    </mxGeometry>
                </mxCell>
                <mxCell id="25" value="Hora de&lt;br&gt;la&amp;nbsp; cena" style="html=1;shape=mxgraph.sysml.timeEvent;strokeWidth=2;verticalLabelPosition=bottom;verticalAlignment=top;fillColor=#1ba1e2;fontColor=#006eaf;strokeColor=#006EAF;" vertex="1" parent="17">
                    <mxGeometry x="30" y="40" width="35" height="40" as="geometry"/>
                </mxCell>
                <mxCell id="18" value="Restaurante" style="swimlane;startSize=20;whiteSpace=wrap;html=1;fontStyle=0;fillColor=#1ba1e2;fontColor=#ffffff;strokeColor=#006EAF;" vertex="1" parent="1">
                    <mxGeometry x="510" y="60" width="190" height="410" as="geometry"/>
                </mxCell>
                <mxCell id="2" value="Aceptar pedido" style="shape=mxgraph.sysml.accEvent;flipH=1;whiteSpace=wrap;align=center;direction=west;fontStyle=0;fillColor=#1ba1e2;fontColor=#ffffff;strokeColor=#006EAF;" vertex="1" parent="18">
                    <mxGeometry x="25" y="120" width="140" height="40" as="geometry"/>
                </mxCell>
                <mxCell id="10" value="Preparar pedido" style="rounded=1;whiteSpace=wrap;html=1;arcSize=40;fontColor=#ffffff;fillColor=#1ba1e2;strokeColor=#006EAF;fontStyle=0" vertex="1" parent="18">
                    <mxGeometry x="35" y="200" width="120" height="40" as="geometry"/>
                </mxCell>
                <mxCell id="12" value="Enviar pedido" style="shape=mxgraph.sysml.sendSigAct;whiteSpace=wrap;align=center;direction=west;fontStyle=0;fillColor=#1ba1e2;fontColor=#ffffff;strokeColor=#006EAF;" vertex="1" parent="18">
                    <mxGeometry x="25" y="280" width="140" height="40" as="geometry"/>
                </mxCell>
                <mxCell id="11" value="" style="edgeStyle=orthogonalEdgeStyle;html=1;verticalAlign=bottom;endArrow=open;endSize=8;strokeColor=#006EAF;fontStyle=0;fillColor=#1ba1e2;" edge="1" source="10" parent="18" target="12">
                    <mxGeometry relative="1" as="geometry">
                        <mxPoint x="80" y="300" as="targetPoint"/>
                    </mxGeometry>
                </mxCell>
                <mxCell id="22" value="" style="edgeStyle=orthogonalEdgeStyle;html=1;verticalAlign=bottom;endArrow=open;endSize=8;strokeColor=#006EAF;fontStyle=0;fillColor=#1ba1e2;" edge="1" parent="18" source="2" target="10">
                    <mxGeometry relative="1" as="geometry">
                        <mxPoint x="90" y="225" as="targetPoint"/>
                        <mxPoint x="105" y="250" as="sourcePoint"/>
                    </mxGeometry>
                </mxCell>
                <mxCell id="3" value="Confirmar pedido" style="shape=mxgraph.sysml.sendSigAct;whiteSpace=wrap;align=center;fontStyle=0;fillColor=#1ba1e2;fontColor=#ffffff;strokeColor=#006EAF;" vertex="1" parent="1">
                    <mxGeometry x="350" y="180" width="140" height="40" as="geometry"/>
                </mxCell>
                <mxCell id="20" value="" style="endArrow=open;endSize=12;dashed=1;html=1;fontStyle=0;fillColor=#1ba1e2;strokeColor=#006EAF;" edge="1" parent="1" source="3" target="2">
                    <mxGeometry width="160" relative="1" as="geometry">
                        <mxPoint x="260" y="560" as="sourcePoint"/>
                        <mxPoint x="420" y="560" as="targetPoint"/>
                    </mxGeometry>
                </mxCell>
                <mxCell id="21" value="" style="endArrow=open;endSize=12;dashed=1;html=1;fontStyle=0;fillColor=#1ba1e2;strokeColor=#006EAF;" edge="1" parent="1" source="12" target="13">
                    <mxGeometry width="160" relative="1" as="geometry">
                        <mxPoint x="360" y="530" as="sourcePoint"/>
                        <mxPoint x="520" y="530" as="targetPoint"/>
                    </mxGeometry>
                </mxCell>
                <mxCell id="26" style="edgeStyle=none;html=1;exitX=0.5;exitY=0.5;exitDx=0;exitDy=0;exitPerimeter=0;rounded=1;endArrow=open;endFill=0;fillColor=#1ba1e2;strokeColor=#006EAF;" edge="1" parent="1" source="25" target="6">
                    <mxGeometry relative="1" as="geometry">
                        <Array as="points">
                            <mxPoint x="100" y="120"/>
                        </Array>
                    </mxGeometry>
                </mxCell>
            </root>
        </mxGraphModel>
    </diagram>
</mxfile>